<svg xmlns="http://www.w3.org/2000/svg" width="16" height="14" viewBox="0 0 16 14">
  <path id="패스_98740" data-name="패스 98740" d="M1730.77,1238a1.642,1.642,0,0,1-1.25-.551,1.923,1.923,0,0,1-.52-1.357v-10.164a1.923,1.923,0,0,1,.52-1.367,1.619,1.619,0,0,1,1.25-.561h12.441a1.659,1.659,0,0,1,1.27.561,1.923,1.923,0,0,1,.52,1.367v10.164a1.923,1.923,0,0,1-.52,1.357,1.683,1.683,0,0,1-1.27.551Zm6.221-6.176a1.03,1.03,0,0,0,.25-.043,2.257,2.257,0,0,0,.24-.119l5.469-3.955a.547.547,0,0,0,.182-.193.65.65,0,0,0,.08-.334.685.685,0,0,0-.311-.582.471.471,0,0,0-.631.02l-5.279,3.719-5.26-3.719a.546.546,0,0,0-.641-.041.6.6,0,0,0-.32.58.623.623,0,0,0,.09.324,1.106,1.106,0,0,0,.191.227l5.449,3.955a1.681,1.681,0,0,0,.25.119A.878.878,0,0,0,1736.99,1231.824Z" transform="translate(-1729 -1224)" fill="#d6d6d6"/>
</svg>
