<svg id="그룹_178129" data-name="그룹 178129" xmlns="http://www.w3.org/2000/svg" xmlns:xlink="http://www.w3.org/1999/xlink" width="48" height="48" viewBox="0 0 48 48">
  <defs>
    <clipPath id="clip-path">
      <rect id="사각형_150457" data-name="사각형 150457" width="24.637" height="25.14" fill="none"/>
    </clipPath>
  </defs>
  <g id="패스_93133" data-name="패스 93133" fill="#fff">
    <path d="M 24 47.5 C 20.82729911804199 47.5 17.74976921081543 46.87873077392578 14.85289001464844 45.65346145629883 C 12.05459022521973 44.46987915039062 9.541350364685059 42.77537155151367 7.382989883422852 40.61700820922852 C 5.224629878997803 38.45864868164062 3.530119895935059 35.94541168212891 2.346539974212646 33.14710998535156 C 1.121269941329956 30.25023078918457 0.5 27.17270088195801 0.5 24 C 0.5 20.82729911804199 1.121269941329956 17.74976921081543 2.346539974212646 14.85289001464844 C 3.530119895935059 12.05459022521973 5.224629878997803 9.541350364685059 7.382989883422852 7.382989883422852 C 9.541350364685059 5.224629878997803 12.05459022521973 3.530119895935059 14.85289001464844 2.346539974212646 C 17.74976921081543 1.121269941329956 20.82729911804199 0.5 24 0.5 C 27.17270088195801 0.5 30.25023078918457 1.121269941329956 33.14710998535156 2.346539974212646 C 35.94541168212891 3.530119895935059 38.45864868164062 5.224629878997803 40.61700820922852 7.382989883422852 C 42.77537155151367 9.541350364685059 44.46987915039062 12.05459022521973 45.65346145629883 14.85289001464844 C 46.87873077392578 17.74976921081543 47.5 20.82729911804199 47.5 24 C 47.5 31.42803001403809 44.03638076782227 38.30899810791016 37.99723815917969 42.8785400390625 C 34.06119918823242 45.85876846313477 29.09025955200195 47.5 24 47.5 Z" stroke="none"/>
    <path d="M 24 1 C 20.89458084106445 1 17.8825798034668 1.607978820800781 15.04766845703125 2.807041168212891 C 12.3089714050293 3.965419769287109 9.849151611328125 5.623939514160156 7.736549377441406 7.736549377441406 C 5.623939514160156 9.849151611328125 3.965419769287109 12.3089714050293 2.807041168212891 15.04766845703125 C 1.607978820800781 17.8825798034668 1 20.89458084106445 1 24 C 1 27.10541915893555 1.607978820800781 30.1174201965332 2.807041168212891 32.95233154296875 C 3.965419769287109 35.6910285949707 5.623939514160156 38.15084838867188 7.736549377441406 40.26345062255859 C 9.849151611328125 42.37606048583984 12.3089714050293 44.03458023071289 15.04766845703125 45.19295883178711 C 17.8825798034668 46.39202117919922 20.89458084106445 47 24 47 C 28.98196983337402 47 33.84571075439453 45.39477157592773 37.69554138183594 42.47980880737305 C 43.60865020751953 38.00563049316406 47 31.27000045776367 47 24 C 47 20.89458084106445 46.39202117919922 17.8825798034668 45.19295883178711 15.04766845703125 C 44.03458023071289 12.3089714050293 42.37606048583984 9.849151611328125 40.26345825195312 7.736549377441406 C 38.15085983276367 5.623939514160156 35.6910400390625 3.965419769287109 32.95233154296875 2.807041168212891 C 30.1174201965332 1.607978820800781 27.10541915893555 1 24 1 M 24 0 C 37.25484085083008 0 48 10.74517059326172 48 24 C 48 31.82035064697266 44.25960922241211 38.76708984375 38.29893112182617 43.27725982666016 C 34.44709014892578 46.19374084472656 29.43448066711426 48 24 48 C 10.74517059326172 48 0 37.25482940673828 0 24 C 0 10.74517059326172 10.74517059326172 0 24 0 Z" stroke="none" fill="#d6d6d6"/>
  </g>
  <g id="그룹_166297" data-name="그룹 166297" transform="translate(11.557 11.577)" clip-path="url(#clip-path)">
    <path id="패스_92999" data-name="패스 92999" d="M118.216,89.421a14.436,14.436,0,0,0-.229-2.571H106.149v4.862h6.765a5.783,5.783,0,0,1-2.508,3.794V98.66h4.062a12.259,12.259,0,0,0,3.748-9.239" transform="translate(-93.579 -76.565)" fill="#3e82f1" fill-rule="evenodd"/>
    <path id="패스_93000" data-name="패스 93000" d="M22.523,136.5a12,12,0,0,0,8.319-3.045L26.78,130.3a7.583,7.583,0,0,1-11.29-3.982h-4.2v3.257A12.566,12.566,0,0,0,22.523,136.5" transform="translate(-9.953 -111.359)" fill="#32a753" fill-rule="evenodd"/>
    <path id="패스_93001" data-name="패스 93001" d="M5.537,66.512a7.432,7.432,0,0,1,0-4.777V58.479h-4.2a12.585,12.585,0,0,0,0,11.29Z" transform="translate(0 -51.554)" fill="#f9bb00" fill-rule="evenodd"/>
    <path id="패스_93002" data-name="패스 93002" d="M22.523,5a6.791,6.791,0,0,1,4.805,1.88l3.605-3.605A12.08,12.08,0,0,0,22.523,0,12.566,12.566,0,0,0,11.29,6.926l4.2,3.257A7.491,7.491,0,0,1,22.523,5" transform="translate(-9.953 -0.001)" fill="#e74133" fill-rule="evenodd"/>
  </g>
</svg>
