<svg xmlns="http://www.w3.org/2000/svg" xmlns:xlink="http://www.w3.org/1999/xlink" width="28" height="26" viewBox="0 0 28 26">
  <defs>
    <clipPath id="clip-path">
      <rect id="사각형_154170" data-name="사각형 154170" width="28" height="26" fill="none"/>
    </clipPath>
  </defs>
  <g id="마스크_그룹_177947" data-name="마스크 그룹 177947" clip-path="url(#clip-path)">
    <path id="패스_98714" data-name="패스 98714" d="M28,20.215A6.019,6.019,0,0,1,21.77,26H6.23A6.019,6.019,0,0,1,0,20.215V5.785A6.019,6.019,0,0,1,6.23,0H21.77A6.019,6.019,0,0,1,28,5.785Z" fill="#f9db00"/>
    <path id="패스_98715" data-name="패스 98715" d="M35.831,32.33c-4.891,0-8.856,3.386-8.856,7.562,0,3.085,1.4,4.557,3.316,5.9l.009,0v3.62a.227.227,0,0,0,.36.167l3.358-2.3.072.029a10.381,10.381,0,0,0,1.741.146c4.891,0,8.855-3.386,8.855-7.563s-3.964-7.562-8.855-7.562" transform="translate(-21.845 -26.653)" fill="#f9db00"/>
    <path id="패스_98716" data-name="패스 98716" d="M35.831,26c-4.891,0-8.856,3.386-8.856,7.563,0,3.085,1.4,4.557,3.316,5.9l.009,0v3.62a.227.227,0,0,0,.36.167l3.358-2.3.072.029a10.381,10.381,0,0,0,1.741.146c4.891,0,8.855-3.386,8.855-7.563S40.721,26,35.831,26M32.862,35.48A1.842,1.842,0,0,0,34.7,34.259H35.98a3.02,3.02,0,0,1-3.118,2.361,3.076,3.076,0,1,1,0-6.131,3.019,3.019,0,0,1,3.127,2.4h-1.28a1.811,1.811,0,0,0-1.847-1.281,1.93,1.93,0,0,0-2.084,1.941,1.982,1.982,0,0,0,2.084,1.925m8.46,1.023H40.146V34.052a.813.813,0,0,0-.9-.867.928.928,0,0,0-1,1.044V36.5H37.062V30.509h1.177v2.254a1.555,1.555,0,0,1,1.359-.589,1.642,1.642,0,0,1,1.724,1.743Z" transform="translate(-21.845 -21.436)" fill="#3e1918"/>
  </g>
</svg>
