<svg xmlns="http://www.w3.org/2000/svg" xmlns:xlink="http://www.w3.org/1999/xlink" width="32" height="32" viewBox="0 0 32 32">
  <defs>
    <filter id="타원_65" x="0" y="0" width="32" height="32" filterUnits="userSpaceOnUse">
      <feOffset dy="2" input="SourceAlpha"/>
      <feGaussianBlur stdDeviation="1" result="blur"/>
      <feFlood flood-opacity="0.039"/>
      <feComposite operator="in" in2="blur"/>
      <feComposite in="SourceGraphic"/>
    </filter>
  </defs>
  <g id="그룹_178233" data-name="그룹 178233" transform="translate(-1566 -8700)">
    <g transform="matrix(1, 0, 0, 1, 1566, 8700)" filter="url(#타원_65)">
      <circle id="타원_65-2" data-name="타원 65" cx="13" cy="13" r="13" transform="translate(3 1)" fill="#fff"/>
    </g>
    <path id="패스_93028" data-name="패스 93028" d="M424.242,74.535c-3.854,0-6.978,2.47-6.978,5.517a5.391,5.391,0,0,0,3.311,4.694c-.146.545-.529,1.974-.605,2.279-.095.38.139.375.292.273.12-.08,1.912-1.3,2.685-1.825a8.815,8.815,0,0,0,1.3.1c3.854,0,6.978-2.47,6.978-5.516s-3.124-5.517-6.978-5.517" transform="translate(1157.576 8632.91)" fill="#1a73e8"/>
  </g>
</svg>
