<svg xmlns="http://www.w3.org/2000/svg" xmlns:xlink="http://www.w3.org/1999/xlink" width="28" height="26" viewBox="0 0 28 26">
  <defs>
    <clipPath id="clip-path">
      <rect id="사각형_154172" data-name="사각형 154172" width="28" height="26" fill="none"/>
    </clipPath>
  </defs>
  <g id="그룹_177950" data-name="그룹 177950" clip-path="url(#clip-path)">
    <path id="패스_98721" data-name="패스 98721" d="M28,20.8A5.411,5.411,0,0,1,22.4,26H5.6A5.411,5.411,0,0,1,0,20.8V5.2A5.411,5.411,0,0,1,5.6,0H22.4A5.411,5.411,0,0,1,28,5.2Z" transform="translate(0 -0.001)" fill="#00c402"/>
    <path id="패스_98722" data-name="패스 98722" d="M38.177,19.143h-16.4a3.664,3.664,0,0,0-3.787,3.529v8.371a3.665,3.665,0,0,0,3.787,3.529h5.65l1.928,2.915a.685.685,0,0,0,1.181.087.421.421,0,0,0,.065-.087l1.928-2.915h5.65a3.665,3.665,0,0,0,3.787-3.529V22.672a3.665,3.665,0,0,0-3.787-3.529" transform="translate(-15.975 -17.155)" fill="#fff"/>
    <path id="패스_98723" data-name="패스 98723" d="M44.03,64.189a2.032,2.032,0,0,0-1.248.536V62.564H41.314v5.679H42.8V67.8a1.426,1.426,0,0,0,1.233.587,2.1,2.1,0,0,0,0-4.2m-.323,3a.878.878,0,1,1,.943-.876.912.912,0,0,1-.943.876" transform="translate(-36.693 -56.067)" fill="#f63"/>
    <path id="패스_98724" data-name="패스 98724" d="M88.313,61.341v1.314s.67-.028.67,1.13v3.362H90.4V63.474a2.025,2.025,0,0,0-2.085-2.133" transform="translate(-78.436 -54.971)" fill="#f63"/>
    <path id="패스_98725" data-name="패스 98725" d="M118.624,78.381s-2.425,0-2.425,2.1c0,0-.079,2.075,2.425,2.075,0,0,2.481,0,2.481-2.075,0,0,.081-2.1-2.481-2.1m0,2.979a.878.878,0,1,1,.943-.876.912.912,0,0,1-.943.876" transform="translate(-103.203 -70.241)" fill="#f63"/>
    <path id="패스_98726" data-name="패스 98726" d="M170.011,78.515V78.9a1.645,1.645,0,0,0-1.232-.519,2.056,2.056,0,0,0-.057,4.111,1.752,1.752,0,0,0,1.289-.519v.318a.88.88,0,0,1-.935,1h-.354V84.49h.57a2.078,2.078,0,0,0,2.145-2.129V78.515Zm-.877,2.842a.878.878,0,1,1,.943-.876.911.911,0,0,1-.943.876" transform="translate(-148.059 -70.238)" fill="#f63"/>
  </g>
</svg>
