<svg xmlns="http://www.w3.org/2000/svg" width="18" height="18" viewBox="0 0 18 18">
  <path id="패스_98735" data-name="패스 98735" d="M-5511.869,2235.093v-3l-2.229-.248a6.965,6.965,0,0,0-.747-1.806l1.4-1.75-2.122-2.122-1.75,1.4a6.947,6.947,0,0,0-1.807-.748l-.247-2.228h-3l-.249,2.228a6.924,6.924,0,0,0-1.8.748l-1.75-1.4-2.123,2.122,1.4,1.75a7.033,7.033,0,0,0-.747,1.806l-2.229.248v3l2.229.248a7.021,7.021,0,0,0,.747,1.805l-1.4,1.75,2.123,2.122,1.75-1.4a6.956,6.956,0,0,0,1.8.747l.249,2.229h3l.247-2.229a6.933,6.933,0,0,0,1.806-.747l1.75,1.4,2.122-2.122-1.4-1.75a6.9,6.9,0,0,0,.747-1.8Zm-9,1a2.5,2.5,0,0,1-2.5-2.5,2.5,2.5,0,0,1,2.5-2.5,2.5,2.5,0,0,1,2.5,2.5,2.5,2.5,0,0,1-2.5,2.5" transform="translate(5529.869 -2224.593)" fill="#d6d6d6"/>
</svg>
