<svg id="그룹_178548" data-name="그룹 178548" xmlns="http://www.w3.org/2000/svg" xmlns:xlink="http://www.w3.org/1999/xlink" width="24" height="18" viewBox="0 0 24 18">
  <defs>
    <clipPath id="clip-path">
      <rect id="사각형_154525" data-name="사각형 154525" width="24" height="18" fill="#999"/>
    </clipPath>
  </defs>
  <g id="그룹_178547" data-name="그룹 178547" clip-path="url(#clip-path)">
    <path id="패스_98902" data-name="패스 98902" d="M22.53,7.2a4.527,4.527,0,0,0-3.546-1.853,4.013,4.013,0,0,0-.454.026,6.953,6.953,0,0,0-1.478-3.609A4.5,4.5,0,0,0,13.585,0a5.053,5.053,0,0,0-4.5,3.56A3.247,3.247,0,0,0,7.424,3.1,3.541,3.541,0,0,0,4.651,4.547,5.633,5.633,0,0,0,3.5,8.046q0,.126.005.252a3.554,3.554,0,0,0-2.38,1.4A5.534,5.534,0,0,0,0,13.14a5.534,5.534,0,0,0,1.128,3.437A3.478,3.478,0,0,0,3.852,18H11.46V11.222L9.694,13.45a.464.464,0,0,1-.762,0,.811.811,0,0,1,0-.961L11.618,9.1a.464.464,0,0,1,.762,0l2.686,3.388a.811.811,0,0,1,0,.961.465.465,0,0,1-.762,0l-1.766-2.228V18h6.447a4.527,4.527,0,0,0,3.546-1.853A7.2,7.2,0,0,0,24,11.674,7.2,7.2,0,0,0,22.53,7.2" transform="translate(0.001 -0.001)" fill="#999"/>
  </g>
</svg>
