<svg xmlns="http://www.w3.org/2000/svg" xmlns:xlink="http://www.w3.org/1999/xlink" width="32" height="26" viewBox="0 0 32 26">
  <defs>
    <clipPath id="clip-path">
      <rect id="사각형_154631" data-name="사각형 154631" width="32" height="26" fill="none"/>
    </clipPath>
  </defs>
  <g id="그룹_178715" data-name="그룹 178715" transform="translate(0 0)" opacity="0.6">
    <g id="그룹_178714" data-name="그룹 178714" transform="translate(0 0)" clip-path="url(#clip-path)">
      <path id="패스_99033" data-name="패스 99033" d="M10.044,15.721a.945.945,0,0,0,.22.09l2.182,7.951a.891.891,0,0,0,.713.624,1,1,0,0,0,.176.016.944.944,0,0,0,.739-.346L17.463,19.8l9.87,6.063a.981.981,0,0,0,.89.064.857.857,0,0,0,.528-.667L31.994.953A.819.819,0,0,0,31.673.2a.978.978,0,0,0-.858-.162L.65,8.553a.871.871,0,0,0-.641.7.826.826,0,0,0,.418.83Zm1.92-.609a.818.818,0,0,0-.185-.331L25.669,5.213,13.764,16.407s0,.006-.006.009a.5.5,0,0,0-.105.149c0,.007-.007.014-.01.022a.478.478,0,0,0-.033.121L13.24,19.76Zm2.228,5.931.367-3.032,1.374.844Zm12.92,2.642L15.341,16.454c-.017-.011-.036-.017-.054-.026L29.915,2.672ZM27.34,2.793,10.825,14.17,3.1,9.638Z" transform="translate(0 0)" fill="#3a3b37"/>
    </g>
  </g>
</svg>
