<svg xmlns="http://www.w3.org/2000/svg" xmlns:xlink="http://www.w3.org/1999/xlink" width="385.517" height="213.636" viewBox="0 0 385.517 213.636">
  <defs>
    <clipPath id="clip-path">
      <rect id="사각형_154545" data-name="사각형 154545" width="385.517" height="213.636" fill="none"/>
    </clipPath>
    <clipPath id="clip-path-2">
      <rect id="사각형_154526" data-name="사각형 154526" width="10.921" height="10.922" fill="none"/>
    </clipPath>
    <clipPath id="clip-path-5">
      <rect id="사각형_154530" data-name="사각형 154530" width="10.922" height="10.922" fill="none"/>
    </clipPath>
    <clipPath id="clip-path-12">
      <rect id="사각형_154539" data-name="사각형 154539" width="10.921" height="10.921" fill="none"/>
    </clipPath>
    <clipPath id="clip-path-15">
      <rect id="사각형_154543" data-name="사각형 154543" width="10.922" height="10.921" fill="none"/>
    </clipPath>
  </defs>
  <g id="그룹_178594" data-name="그룹 178594" clip-path="url(#clip-path)">
    <path id="패스_98903" data-name="패스 98903" d="M2729.313,1275.158h-23.286a.9.9,0,0,0-.9.9v47.125a.9.9,0,0,0,.9.9h34.338a.9.9,0,0,0,.9-.9v-36.073a1.139,1.139,0,0,0-.334-.806l-10.814-10.814a1.139,1.139,0,0,0-.806-.334" transform="translate(-2355.75 -1110.469)" fill="#ff7081"/>
    <g id="그룹_178551" data-name="그룹 178551" transform="translate(374.035 165.25)" opacity="0.15">
      <g id="그룹_178550" data-name="그룹 178550">
        <g id="그룹_178549" data-name="그룹 178549" clip-path="url(#clip-path-2)">
          <path id="패스_98904" data-name="패스 98904" d="M2897.09,1290.421h9.5a.4.4,0,0,0,.281-.678l-10.127-10.127a.4.4,0,0,0-.677.281v9.5a1.022,1.022,0,0,0,1.022,1.022" transform="translate(-2896.068 -1279.5)"/>
        </g>
      </g>
    </g>
    <path id="패스_98905" data-name="패스 98905" d="M2763.268,1457.129a13.659,13.659,0,0,1,2.26-.176,3.747,3.747,0,0,1,2.558.758,2.452,2.452,0,0,1,.8,1.908,2.685,2.685,0,0,1-.7,1.949,3.78,3.78,0,0,1-2.788,1,4.054,4.054,0,0,1-.947-.081v3.654h-1.177Zm1.177,4.4a3.943,3.943,0,0,0,.974.095c1.421,0,2.287-.69,2.287-1.949,0-1.2-.853-1.786-2.152-1.786a4.945,4.945,0,0,0-1.11.095Z" transform="translate(-2406.385 -1268.784)" fill="#fff"/>
    <path id="패스_98906" data-name="패스 98906" d="M2819.012,1457.143a16.862,16.862,0,0,1,2.5-.189,5.224,5.224,0,0,1,3.694,1.137,4.2,4.2,0,0,1,1.285,3.275,4.824,4.824,0,0,1-1.312,3.546,5.619,5.619,0,0,1-4.033,1.313,19.009,19.009,0,0,1-2.138-.108Zm1.177,8.065a7.439,7.439,0,0,0,1.191.068,3.506,3.506,0,0,0,3.884-3.87c.014-2.152-1.2-3.518-3.694-3.518a6.682,6.682,0,0,0-1.38.122Z" transform="translate(-2454.929 -1268.784)" fill="#fff"/>
    <path id="패스_98907" data-name="패스 98907" d="M2888.795,1457.477h4.912v.988h-3.735v3.031h3.45v.974h-3.45v4.127h-1.177Z" transform="translate(-2515.699 -1269.241)" fill="#fff"/>
    <path id="패스_98908" data-name="패스 98908" d="M2053.031,1275.158h-23.286a.9.9,0,0,0-.9.9v47.125a.9.9,0,0,0,.9.9h34.338a.9.9,0,0,0,.9-.9v-36.073a1.14,1.14,0,0,0-.334-.806l-10.814-10.814a1.14,1.14,0,0,0-.806-.334" transform="translate(-1766.813 -1110.469)" fill="#6382ff"/>
    <path id="패스_98909" data-name="패스 98909" d="M2053.031,1275.158h-23.286a.9.9,0,0,0-.9.9v47.125a.9.9,0,0,0,.9.9h34.338a.9.9,0,0,0,.9-.9v-36.073a1.14,1.14,0,0,0-.334-.806l-10.814-10.814A1.14,1.14,0,0,0,2053.031,1275.158Z" transform="translate(-1766.813 -1110.469)" fill="none" stroke="#fff" stroke-miterlimit="10" stroke-width="0.25"/>
    <g id="그룹_178554" data-name="그룹 178554" transform="translate(286.692 165.25)" opacity="0.15">
      <g id="그룹_178553" data-name="그룹 178553">
        <g id="그룹_178552" data-name="그룹 178552" clip-path="url(#clip-path-2)">
          <path id="패스_98910" data-name="패스 98910" d="M2220.809,1290.421h9.5a.4.4,0,0,0,.281-.678l-10.127-10.127a.4.4,0,0,0-.677.281v9.5a1.022,1.022,0,0,0,1.022,1.022" transform="translate(-2219.788 -1279.5)"/>
        </g>
      </g>
    </g>
    <path id="패스_98911" data-name="패스 98911" d="M2047.981,1454.534v3.816h4.411v-3.816h1.191v9.121h-1.191v-4.276h-4.411v4.276H2046.8v-9.121Z" transform="translate(-1782.454 -1266.678)" fill="#fff"/>
    <path id="패스_98912" data-name="패스 98912" d="M2109.828,1455.535h-2.774v-1h6.752v1h-2.788v8.119h-1.191Z" transform="translate(-1834.922 -1266.678)" fill="#fff"/>
    <path id="패스_98913" data-name="패스 98913" d="M2173.241,1459.649c-.068-1.272-.149-2.8-.135-3.938h-.041c-.311,1.069-.69,2.206-1.15,3.464l-1.61,4.425h-.893l-1.475-4.344c-.433-1.286-.8-2.463-1.055-3.546h-.027c-.027,1.137-.095,2.666-.176,4.033l-.243,3.911h-1.123l.636-9.12h1.5l1.556,4.411c.379,1.123.69,2.124.92,3.072h.041c.23-.92.555-1.922.961-3.072l1.624-4.411h1.5l.568,9.12h-1.15Z" transform="translate(-1885.655 -1266.678)" fill="#fff"/>
    <path id="패스_98914" data-name="패스 98914" d="M2251.439,1454.534h1.177v8.133h3.9v.988h-5.074Z" transform="translate(-1960.66 -1266.678)" fill="#fff"/>
    <path id="패스_98915" data-name="패스 98915" d="M1376.751,1275.158h-23.286a.9.9,0,0,0-.9.9v47.125a.9.9,0,0,0,.9.9H1387.8a.9.9,0,0,0,.9-.9v-36.073a1.141,1.141,0,0,0-.334-.806l-10.814-10.814a1.14,1.14,0,0,0-.806-.334" transform="translate(-1177.875 -1110.469)" fill="#cc4b92"/>
    <g id="그룹_178557" data-name="그룹 178557" transform="translate(199.348 165.25)" opacity="0.15">
      <g id="그룹_178556" data-name="그룹 178556">
        <g id="그룹_178555" data-name="그룹 178555" clip-path="url(#clip-path-2)">
          <path id="패스_98916" data-name="패스 98916" d="M1544.527,1290.421h9.5a.4.4,0,0,0,.281-.678l-10.127-10.127a.4.4,0,0,0-.678.281v9.5a1.022,1.022,0,0,0,1.022,1.022" transform="translate(-1543.506 -1279.5)"/>
        </g>
      </g>
    </g>
    <path id="패스_98917" data-name="패스 98917" d="M1428.9,1464.165l-.947,2.869h-1.218l3.1-9.121h1.421l3.112,9.121h-1.258l-.974-2.869Zm2.991-.92-.893-2.625c-.2-.6-.338-1.137-.474-1.664h-.027c-.135.541-.284,1.1-.46,1.651l-.893,2.639Z" transform="translate(-1242.469 -1269.62)" fill="#fff"/>
    <path id="패스_98918" data-name="패스 98918" d="M1486.087,1467.034l-2.977-9.12h1.272l1.421,4.493c.392,1.231.731,2.341.974,3.41h.027c.257-1.055.636-2.206,1.042-3.4l1.543-4.506h1.259l-3.261,9.12Z" transform="translate(-1291.562 -1269.621)" fill="#fff"/>
    <rect id="사각형_154529" data-name="사각형 154529" width="1.177" height="9.121" transform="translate(200.073 188.293)" fill="#fff"/>
    <path id="패스_98919" data-name="패스 98919" d="M700.47,1275.158H677.184a.9.9,0,0,0-.9.9v47.125a.9.9,0,0,0,.9.9h34.338a.9.9,0,0,0,.9-.9v-36.073a1.14,1.14,0,0,0-.334-.806l-10.815-10.814a1.14,1.14,0,0,0-.806-.334" transform="translate(-588.938 -1110.469)" fill="#00ccae"/>
    <g id="그룹_178560" data-name="그룹 178560" transform="translate(112.004 165.25)" opacity="0.15">
      <g id="그룹_178559" data-name="그룹 178559">
        <g id="그룹_178558" data-name="그룹 178558" clip-path="url(#clip-path-5)">
          <path id="패스_98920" data-name="패스 98920" d="M868.247,1290.421h9.5a.4.4,0,0,0,.281-.678L867.9,1279.617a.4.4,0,0,0-.678.281v9.5a1.022,1.022,0,0,0,1.022,1.022" transform="translate(-867.225 -1279.5)"/>
        </g>
      </g>
    </g>
    <path id="패스_98921" data-name="패스 98921" d="M756.211,1465.989a8.5,8.5,0,0,1-2.8.5,4.283,4.283,0,0,1-4.682-4.6,4.574,4.574,0,0,1,4.939-4.709,5.639,5.639,0,0,1,2.273.419l-.284.961a4.725,4.725,0,0,0-2.016-.393,3.411,3.411,0,0,0-3.667,3.667,3.343,3.343,0,0,0,3.518,3.681,3.839,3.839,0,0,0,1.57-.244v-2.72h-1.854v-.947h3Z" transform="translate(-652.028 -1268.982)" fill="#fff"/>
    <rect id="사각형_154531" data-name="사각형 154531" width="1.177" height="9.121" transform="translate(105.983 188.293)" fill="#fff"/>
    <path id="패스_98922" data-name="패스 98922" d="M845.649,1457.913h4.912v.988h-3.735v3.031h3.451v.974h-3.451v4.127h-1.177Z" transform="translate(-736.431 -1269.62)" fill="#fff"/>
    <path id="패스_98923" data-name="패스 98923" d="M24.189,1275.158H.9a.9.9,0,0,0-.9.9v47.125a.9.9,0,0,0,.9.9H35.241a.9.9,0,0,0,.9-.9v-36.073a1.141,1.141,0,0,0-.334-.806l-10.814-10.814a1.14,1.14,0,0,0-.806-.334" transform="translate(0 -1110.469)" fill="#a689ff"/>
    <g id="그룹_178563" data-name="그룹 178563" transform="translate(24.661 165.25)" opacity="0.15">
      <g id="그룹_178562" data-name="그룹 178562">
        <g id="그룹_178561" data-name="그룹 178561" clip-path="url(#clip-path-5)">
          <path id="패스_98924" data-name="패스 98924" d="M191.965,1290.421h9.5a.4.4,0,0,0,.281-.678l-10.127-10.127a.4.4,0,0,0-.678.281v9.5a1.022,1.022,0,0,0,1.022,1.022" transform="translate(-190.943 -1279.5)"/>
        </g>
      </g>
    </g>
    <path id="패스_98925" data-name="패스 98925" d="M74.281,1462.964l5.061-7.4v-.041H74.714v-.988h6.157v.717l-5.034,7.375v.041h5.1v.988H74.281Z" transform="translate(-64.687 -1266.677)" fill="#fff"/>
    <rect id="사각형_154533" data-name="사각형 154533" width="1.177" height="9.121" transform="translate(17.699 187.856)" fill="#fff"/>
    <path id="패스_98926" data-name="패스 98926" d="M162.085,1454.185a13.631,13.631,0,0,1,2.26-.176,3.747,3.747,0,0,1,2.558.758,2.453,2.453,0,0,1,.8,1.908,2.685,2.685,0,0,1-.7,1.949,3.779,3.779,0,0,1-2.788,1,4.054,4.054,0,0,1-.947-.081v3.654h-1.177Zm1.177,4.4a3.949,3.949,0,0,0,.974.095c1.421,0,2.287-.69,2.287-1.949,0-1.2-.852-1.786-2.152-1.786a4.934,4.934,0,0,0-1.109.095Z" transform="translate(-141.151 -1266.221)" fill="#fff"/>
    <path id="패스_98927" data-name="패스 98927" d="M2729.313,637.582h-23.286a.9.9,0,0,0-.9.9V685.61a.9.9,0,0,0,.9.9h34.338a.9.9,0,0,0,.9-.9V649.537a1.139,1.139,0,0,0-.334-.806l-10.814-10.814a1.139,1.139,0,0,0-.806-.334" transform="translate(-2355.75 -555.237)" fill="#ffaf00"/>
    <g id="그룹_178566" data-name="그룹 178566" transform="translate(374.035 82.905)" opacity="0.15">
      <g id="그룹_178565" data-name="그룹 178565">
        <g id="그룹_178564" data-name="그룹 178564" clip-path="url(#clip-path-2)">
          <path id="패스_98928" data-name="패스 98928" d="M2897.09,652.844h9.5a.4.4,0,0,0,.281-.678l-10.127-10.127a.4.4,0,0,0-.677.281v9.5a1.022,1.022,0,0,0,1.022,1.022" transform="translate(-2896.068 -641.922)"/>
        </g>
      </g>
    </g>
    <path id="패스_98929" data-name="패스 98929" d="M2764.158,817.958h-2.774v-1h6.752v1h-2.788v8.119h-1.191Z" transform="translate(-2404.744 -711.445)" fill="#fff"/>
    <path id="패스_98930" data-name="패스 98930" d="M2824.17,826.078l-1.164-2.016c-.474-.771-.771-1.272-1.055-1.8h-.027c-.257.528-.514,1.015-.988,1.813l-1.1,2h-1.353l2.788-4.615-2.679-4.506h1.367l1.2,2.138c.338.6.6,1.056.839,1.543h.041c.257-.541.487-.961.826-1.543l1.245-2.138h1.353L2822.7,821.4l2.842,4.682Z" transform="translate(-2454.472 -711.445)" fill="#fff"/>
    <path id="패스_98931" data-name="패스 98931" d="M2879.2,817.958h-2.774v-1h6.752v1H2880.4v8.119H2879.2Z" transform="translate(-2504.932 -711.445)" fill="#fff"/>
    <path id="패스_98932" data-name="패스 98932" d="M2052.813,637.307h-23a1.078,1.078,0,0,0-1,1v47a1.078,1.078,0,0,0,1,1h34a1.078,1.078,0,0,0,1-1v-36c0-.3.214-.786,0-1l-11-10c-.214-.214-.7-1-1-1" transform="translate(-1766.813 -555.237)" fill="#ff5f33"/>
    <g id="그룹_178569" data-name="그룹 178569" transform="translate(286.692 82.905)" opacity="0.15">
      <g id="그룹_178568" data-name="그룹 178568">
        <g id="그룹_178567" data-name="그룹 178567" clip-path="url(#clip-path-2)">
          <path id="패스_98933" data-name="패스 98933" d="M2220.809,652.844h9.5a.4.4,0,0,0,.281-.678l-10.127-10.127a.4.4,0,0,0-.677.281v9.5a1.022,1.022,0,0,0,1.022,1.022" transform="translate(-2219.788 -641.922)"/>
        </g>
      </g>
    </g>
    <path id="패스_98934" data-name="패스 98934" d="M2072.129,822.071c-.068-1.272-.149-2.8-.135-3.938h-.041c-.311,1.069-.69,2.206-1.15,3.464l-1.61,4.425h-.893l-1.475-4.344c-.433-1.286-.8-2.463-1.055-3.546h-.027c-.027,1.137-.095,2.666-.176,4.033l-.243,3.911H2064.2l.636-9.121h1.5l1.556,4.412c.379,1.123.69,2.124.92,3.072h.041c.23-.92.555-1.922.961-3.072l1.624-4.412h1.5l.568,9.121h-1.15Z" transform="translate(-1797.602 -711.445)" fill="#fff"/>
    <path id="패스_98935" data-name="패스 98935" d="M2154.472,820.418c0,3.14-1.908,4.8-4.236,4.8-2.409,0-4.1-1.867-4.1-4.628,0-2.9,1.8-4.79,4.235-4.79,2.49,0,4.1,1.908,4.1,4.614m-7.077.149c0,1.949,1.056,3.694,2.909,3.694s2.923-1.719,2.923-3.789c0-1.813-.947-3.708-2.909-3.708s-2.923,1.8-2.923,3.8" transform="translate(-1868.957 -710.441)" fill="#fff"/>
    <path id="패스_98936" data-name="패스 98936" d="M2217.954,826.078l-2.977-9.121h1.272l1.421,4.493c.392,1.231.731,2.341.974,3.41h.027c.257-1.055.636-2.206,1.042-3.4l1.543-4.506h1.258l-3.261,9.121Z" transform="translate(-1928.907 -711.445)" fill="#fff"/>
    <path id="패스_98937" data-name="패스 98937" d="M1376.751,637.582h-23.286a.9.9,0,0,0-.9.9V685.61a.9.9,0,0,0,.9.9H1387.8a.9.9,0,0,0,.9-.9V649.537a1.141,1.141,0,0,0-.334-.806l-10.814-10.814a1.14,1.14,0,0,0-.806-.334" transform="translate(-1177.875 -555.237)" fill="#c84fe0"/>
    <g id="그룹_178572" data-name="그룹 178572" transform="translate(199.348 82.905)" opacity="0.15">
      <g id="그룹_178571" data-name="그룹 178571">
        <g id="그룹_178570" data-name="그룹 178570" clip-path="url(#clip-path-2)">
          <path id="패스_98938" data-name="패스 98938" d="M1544.527,652.844h9.5a.4.4,0,0,0,.281-.678l-10.127-10.127a.4.4,0,0,0-.678.281v9.5a1.022,1.022,0,0,0,1.022,1.022" transform="translate(-1543.506 -641.922)"/>
        </g>
      </g>
    </g>
    <path id="패스_98939" data-name="패스 98939" d="M1396.77,819.565a16.871,16.871,0,0,1,2.5-.189,5.223,5.223,0,0,1,3.694,1.137,4.2,4.2,0,0,1,1.286,3.275,4.824,4.824,0,0,1-1.313,3.545,5.619,5.619,0,0,1-4.033,1.313,19,19,0,0,1-2.138-.108Zm1.177,8.065a7.439,7.439,0,0,0,1.191.068,3.506,3.506,0,0,0,3.884-3.87c.014-2.152-1.2-3.518-3.694-3.518a6.685,6.685,0,0,0-1.38.122Z" transform="translate(-1216.373 -713.552)" fill="#fff"/>
    <path id="패스_98940" data-name="패스 98940" d="M1470.7,823.362c0,3.14-1.908,4.8-4.236,4.8-2.409,0-4.1-1.867-4.1-4.628,0-2.9,1.8-4.79,4.236-4.79,2.49,0,4.1,1.908,4.1,4.614m-7.077.149c0,1.949,1.055,3.694,2.909,3.694s2.923-1.719,2.923-3.789c0-1.813-.947-3.708-2.909-3.708s-2.923,1.8-2.923,3.8" transform="translate(-1273.495 -713.005)" fill="#fff"/>
    <path id="패스_98941" data-name="패스 98941" d="M1541.471,827.719a5.845,5.845,0,0,1-2.409.433,4.262,4.262,0,0,1-4.506-4.615,4.539,4.539,0,0,1,4.763-4.79,4.887,4.887,0,0,1,2.165.406l-.284.961a4.288,4.288,0,0,0-1.84-.379c-2.138,0-3.559,1.367-3.559,3.762a3.315,3.315,0,0,0,3.5,3.667,4.71,4.71,0,0,0,1.922-.379Z" transform="translate(-1336.364 -713.004)" fill="#fff"/>
    <path id="패스_98942" data-name="패스 98942" d="M700.47,637.582H677.184a.9.9,0,0,0-.9.9V685.61a.9.9,0,0,0,.9.9h34.338a.9.9,0,0,0,.9-.9V649.537a1.14,1.14,0,0,0-.334-.806l-10.815-10.814a1.14,1.14,0,0,0-.806-.334" transform="translate(-588.938 -555.237)" fill="#10b8cf"/>
    <g id="그룹_178575" data-name="그룹 178575" transform="translate(112.004 82.905)" opacity="0.15">
      <g id="그룹_178574" data-name="그룹 178574">
        <g id="그룹_178573" data-name="그룹 178573" clip-path="url(#clip-path-5)">
          <path id="패스_98943" data-name="패스 98943" d="M868.247,652.844h9.5a.4.4,0,0,0,.281-.678L867.9,642.04a.4.4,0,0,0-.678.281v9.5a1.022,1.022,0,0,0,1.022,1.022" transform="translate(-867.225 -641.922)"/>
        </g>
      </g>
    </g>
    <path id="패스_98944" data-name="패스 98944" d="M733.535,819.552a13.638,13.638,0,0,1,2.26-.176,3.747,3.747,0,0,1,2.557.758,2.453,2.453,0,0,1,.8,1.908,2.685,2.685,0,0,1-.7,1.948,3.779,3.779,0,0,1-2.788,1,4.049,4.049,0,0,1-.947-.081v3.654h-1.177Zm1.177,4.4a3.949,3.949,0,0,0,.974.095c1.421,0,2.287-.69,2.287-1.949,0-1.2-.853-1.786-2.152-1.786a4.944,4.944,0,0,0-1.11.095Z" transform="translate(-638.797 -713.552)" fill="#fff"/>
    <path id="패스_98945" data-name="패스 98945" d="M786.014,826.583a4.172,4.172,0,0,0,2.111.6c1.2,0,1.908-.636,1.908-1.556,0-.853-.487-1.34-1.719-1.813-1.489-.528-2.409-1.3-2.409-2.585,0-1.421,1.177-2.476,2.95-2.476a4.145,4.145,0,0,1,2.016.446l-.325.961a3.632,3.632,0,0,0-1.732-.433c-1.245,0-1.719.744-1.719,1.367,0,.852.555,1.272,1.813,1.759,1.543.6,2.328,1.34,2.328,2.679,0,1.407-1.042,2.625-3.194,2.625a4.715,4.715,0,0,1-2.328-.582Z" transform="translate(-684.239 -713.005)" fill="#fff"/>
    <path id="패스_98946" data-name="패스 98946" d="M840.936,819.565a16.868,16.868,0,0,1,2.5-.189,5.223,5.223,0,0,1,3.694,1.137,4.2,4.2,0,0,1,1.285,3.275,4.823,4.823,0,0,1-1.313,3.545,5.618,5.618,0,0,1-4.033,1.313,19,19,0,0,1-2.138-.108Zm1.177,8.065a7.44,7.44,0,0,0,1.191.068,3.506,3.506,0,0,0,3.884-3.87c.014-2.152-1.2-3.518-3.694-3.518a6.688,6.688,0,0,0-1.38.122Z" transform="translate(-732.327 -713.552)" fill="#fff"/>
    <path id="패스_98947" data-name="패스 98947" d="M24.189,637.582H.9a.9.9,0,0,0-.9.9V685.61a.9.9,0,0,0,.9.9H35.241a.9.9,0,0,0,.9-.9V649.537a1.141,1.141,0,0,0-.334-.806L24.995,637.916a1.14,1.14,0,0,0-.806-.334" transform="translate(0 -555.237)" fill="#ff3b55"/>
    <g id="그룹_178578" data-name="그룹 178578" transform="translate(24.661 82.905)" opacity="0.15">
      <g id="그룹_178577" data-name="그룹 178577">
        <g id="그룹_178576" data-name="그룹 178576" clip-path="url(#clip-path-5)">
          <path id="패스_98948" data-name="패스 98948" d="M191.965,652.844h9.5a.4.4,0,0,0,.281-.678L191.621,642.04a.4.4,0,0,0-.678.281v9.5a1.022,1.022,0,0,0,1.022,1.022" transform="translate(-190.943 -641.922)"/>
        </g>
      </g>
    </g>
    <path id="패스_98949" data-name="패스 98949" d="M64.863,819.215H66.04v6.1c0,2.422-1.191,3.167-2.761,3.167a3.812,3.812,0,0,1-1.259-.217l.176-.961a2.807,2.807,0,0,0,.988.176c1.055,0,1.678-.474,1.678-2.26Z" transform="translate(-54.011 -713.412)" fill="#fff"/>
    <path id="패스_98950" data-name="패스 98950" d="M108.333,818.867a13.638,13.638,0,0,1,2.26-.176,3.747,3.747,0,0,1,2.558.758,2.452,2.452,0,0,1,.8,1.908,2.685,2.685,0,0,1-.7,1.949,3.779,3.779,0,0,1-2.788,1,4.051,4.051,0,0,1-.947-.081v3.654h-1.177Zm1.177,4.4a3.947,3.947,0,0,0,.974.095c1.421,0,2.287-.69,2.287-1.949,0-1.2-.853-1.786-2.152-1.786a4.94,4.94,0,0,0-1.11.095Z" transform="translate(-94.342 -712.956)" fill="#fff"/>
    <path id="패스_98951" data-name="패스 98951" d="M167.369,827.291a8.5,8.5,0,0,1-2.8.5,4.283,4.283,0,0,1-4.682-4.6,4.574,4.574,0,0,1,4.939-4.709,5.638,5.638,0,0,1,2.273.419l-.284.961a4.728,4.728,0,0,0-2.016-.392,3.411,3.411,0,0,0-3.667,3.667,3.343,3.343,0,0,0,3.518,3.681,3.838,3.838,0,0,0,1.57-.244v-2.72h-1.854v-.947h3Z" transform="translate(-139.236 -712.774)" fill="#fff"/>
    <path id="패스_98952" data-name="패스 98952" d="M2729.313,0h-23.286a.9.9,0,0,0-.9.9V48.033a.9.9,0,0,0,.9.9h34.338a.9.9,0,0,0,.9-.9V11.96a1.139,1.139,0,0,0-.334-.806L2730.119.339a1.139,1.139,0,0,0-.806-.334" transform="translate(-2355.75 -0.005)" fill="#0af"/>
    <g id="그룹_178581" data-name="그룹 178581" transform="translate(374.035 0.561)" opacity="0.15">
      <g id="그룹_178580" data-name="그룹 178580">
        <g id="그룹_178579" data-name="그룹 178579" clip-path="url(#clip-path-12)">
          <path id="패스_98953" data-name="패스 98953" d="M2897.09,15.267h9.5a.4.4,0,0,0,.281-.678L2896.746,4.463a.4.4,0,0,0-.677.281v9.5a1.022,1.022,0,0,0,1.022,1.022" transform="translate(-2896.068 -4.346)"/>
        </g>
      </g>
    </g>
    <path id="패스_98954" data-name="패스 98954" d="M2755.829,181.291a13.637,13.637,0,0,1,2.26-.176,3.746,3.746,0,0,1,2.557.758,2.452,2.452,0,0,1,.8,1.908,2.684,2.684,0,0,1-.7,1.949,3.779,3.779,0,0,1-2.788,1,4.049,4.049,0,0,1-.947-.081V190.3h-1.177Zm1.177,4.4a3.947,3.947,0,0,0,.974.095c1.421,0,2.287-.69,2.287-1.949,0-1.2-.853-1.786-2.152-1.786a4.947,4.947,0,0,0-1.109.095Z" transform="translate(-2399.906 -157.724)" fill="#fff"/>
    <path id="패스_98955" data-name="패스 98955" d="M2811.573,190.76v-9.121h1.286l2.923,4.614a25.763,25.763,0,0,1,1.637,2.964l.027-.014c-.108-1.218-.135-2.328-.135-3.748v-3.816h1.11v9.121h-1.191l-2.9-4.628a28.991,28.991,0,0,1-1.7-3.045l-.041.014c.068,1.15.095,2.246.095,3.762v3.9Z" transform="translate(-2448.451 -158.18)" fill="#fff"/>
    <path id="패스_98956" data-name="패스 98956" d="M2883.811,189.715a8.495,8.495,0,0,1-2.8.5,4.283,4.283,0,0,1-4.682-4.6,4.574,4.574,0,0,1,4.939-4.709,5.64,5.64,0,0,1,2.273.419l-.284.961a4.728,4.728,0,0,0-2.016-.393,3.411,3.411,0,0,0-3.667,3.667,3.343,3.343,0,0,0,3.518,3.681,3.838,3.838,0,0,0,1.57-.244v-2.72h-1.854v-.947h3Z" transform="translate(-2504.843 -157.542)" fill="#fff"/>
    <path id="패스_98957" data-name="패스 98957" d="M2053.031,0h-23.286a.9.9,0,0,0-.9.9V48.033a.9.9,0,0,0,.9.9h34.338a.9.9,0,0,0,.9-.9V11.96a1.14,1.14,0,0,0-.334-.806L2053.838.339a1.14,1.14,0,0,0-.806-.334" transform="translate(-1766.813 -0.005)" fill="#14cc4f"/>
    <path id="패스_98958" data-name="패스 98958" d="M2131.639,187.892l-.947,2.869h-1.218l3.1-9.12h1.421l3.113,9.12h-1.259l-.974-2.869Zm2.99-.92-.893-2.625c-.2-.6-.338-1.137-.474-1.665h-.027c-.135.541-.284,1.1-.46,1.651l-.893,2.639Z" transform="translate(-1854.447 -158.181)" fill="#fff"/>
    <rect id="사각형_154540" data-name="사각형 154540" width="1.177" height="9.121" transform="translate(284 23.459)" fill="#fff"/>
    <g id="그룹_178584" data-name="그룹 178584" transform="translate(286.675 0.566)" opacity="0.15">
      <g id="그룹_178583" data-name="그룹 178583">
        <g id="그룹_178582" data-name="그룹 178582" clip-path="url(#clip-path-5)">
          <path id="패스_98959" data-name="패스 98959" d="M2220.685,15.314h9.5a.4.4,0,0,0,.281-.678L2220.341,4.51a.4.4,0,0,0-.678.281v9.5a1.022,1.022,0,0,0,1.022,1.022" transform="translate(-2219.663 -4.392)"/>
        </g>
      </g>
    </g>
    <path id="패스_98960" data-name="패스 98960" d="M1376.751,0h-23.286a.9.9,0,0,0-.9.9V48.033a.9.9,0,0,0,.9.9H1387.8a.9.9,0,0,0,.9-.9V11.96a1.141,1.141,0,0,0-.334-.806L1377.557.339a1.14,1.14,0,0,0-.806-.334" transform="translate(-1177.875 -0.005)" fill="#2099dc"/>
    <g id="그룹_178587" data-name="그룹 178587" transform="translate(199.348 0.561)" opacity="0.15">
      <g id="그룹_178586" data-name="그룹 178586">
        <g id="그룹_178585" data-name="그룹 178585" clip-path="url(#clip-path-12)">
          <path id="패스_98961" data-name="패스 98961" d="M1544.527,15.267h9.5a.4.4,0,0,0,.281-.678L1544.183,4.463a.4.4,0,0,0-.678.281v9.5a1.022,1.022,0,0,0,1.022,1.022" transform="translate(-1543.506 -4.346)"/>
        </g>
      </g>
    </g>
    <path id="패스_98962" data-name="패스 98962" d="M1423.1,186.638h-3.59v3.33h4v1h-5.194v-9.236h4.988v1h-3.8v2.919h3.59Z" transform="translate(-1235.137 -158.262)" fill="#fff"/>
    <path id="패스_98963" data-name="패스 98963" d="M1470.523,181.38a13.814,13.814,0,0,1,2.289-.178,3.794,3.794,0,0,1,2.59.767,2.483,2.483,0,0,1,.808,1.932,2.718,2.718,0,0,1-.713,1.973,3.827,3.827,0,0,1-2.823,1.014,4.1,4.1,0,0,1-.959-.082v3.7h-1.192Zm1.192,4.454a4,4,0,0,0,.987.1c1.439,0,2.316-.7,2.316-1.973,0-1.22-.863-1.809-2.179-1.809a5,5,0,0,0-1.124.1Z" transform="translate(-1280.601 -157.8)" fill="#fff"/>
    <path id="패스_98964" data-name="패스 98964" d="M1523.667,188.5a4.225,4.225,0,0,0,2.138.6c1.22,0,1.932-.644,1.932-1.576,0-.863-.493-1.356-1.74-1.836-1.508-.535-2.439-1.316-2.439-2.617,0-1.439,1.192-2.508,2.987-2.508a4.2,4.2,0,0,1,2.042.452l-.329.973a3.678,3.678,0,0,0-1.754-.439c-1.261,0-1.74.754-1.74,1.384,0,.863.562,1.288,1.836,1.781,1.562.6,2.357,1.357,2.357,2.713,0,1.425-1.055,2.658-3.234,2.658a4.773,4.773,0,0,1-2.357-.589Z" transform="translate(-1326.619 -157.245)" fill="#fff"/>
    <path id="패스_98965" data-name="패스 98965" d="M700.47,0H677.184a.9.9,0,0,0-.9.9V48.033a.9.9,0,0,0,.9.9h34.338a.9.9,0,0,0,.9-.9V11.96a1.14,1.14,0,0,0-.334-.806L701.276.339A1.14,1.14,0,0,0,700.47,0" transform="translate(-588.938 -0.005)" fill="#fe8000"/>
    <g id="그룹_178590" data-name="그룹 178590" transform="translate(112.004 0.561)" opacity="0.15">
      <g id="그룹_178589" data-name="그룹 178589">
        <g id="그룹_178588" data-name="그룹 178588" clip-path="url(#clip-path-15)">
          <path id="패스_98966" data-name="패스 98966" d="M868.247,15.267h9.5a.4.4,0,0,0,.281-.678L867.9,4.463a.4.4,0,0,0-.678.281v9.5a1.022,1.022,0,0,0,1.022,1.022" transform="translate(-867.225 -4.346)"/>
        </g>
      </g>
    </g>
    <path id="패스_98967" data-name="패스 98967" d="M744.078,190.968l-1.179-2.042c-.479-.781-.781-1.288-1.069-1.823H741.8c-.26.534-.521,1.028-1,1.836l-1.11,2.028h-1.37l2.823-4.673-2.713-4.563h1.384l1.22,2.165c.343.6.6,1.069.85,1.562h.041c.26-.548.493-.973.836-1.562l1.261-2.165h1.37l-2.809,4.495,2.878,4.741Z" transform="translate(-642.967 -158.261)" fill="#fff"/>
    <path id="패스_98968" data-name="패스 98968" d="M804.322,181.732h1.192v8.236h3.947v1h-5.139Z" transform="translate(-700.442 -158.262)" fill="#fff"/>
    <path id="패스_98969" data-name="패스 98969" d="M851.1,188.5a4.225,4.225,0,0,0,2.138.6c1.22,0,1.932-.644,1.932-1.576,0-.863-.493-1.356-1.74-1.836-1.507-.535-2.439-1.316-2.439-2.617,0-1.439,1.192-2.508,2.987-2.508a4.2,4.2,0,0,1,2.042.452l-.329.973a3.679,3.679,0,0,0-1.754-.439c-1.261,0-1.74.754-1.74,1.384,0,.863.562,1.288,1.836,1.781,1.562.6,2.357,1.357,2.357,2.713,0,1.425-1.055,2.658-3.234,2.658a4.774,4.774,0,0,1-2.357-.589Z" transform="translate(-740.915 -157.245)" fill="#fff"/>
    <path id="패스_98970" data-name="패스 98970" d="M24.189,0H.9a.9.9,0,0,0-.9.9V48.033a.9.9,0,0,0,.9.9H35.241a.9.9,0,0,0,.9-.9V11.96a1.141,1.141,0,0,0-.334-.806L24.995.339A1.14,1.14,0,0,0,24.189,0" transform="translate(0 -0.005)" fill="#fdcd02"/>
    <g id="그룹_178593" data-name="그룹 178593" transform="translate(24.661 0.561)" opacity="0.15">
      <g id="그룹_178592" data-name="그룹 178592">
        <g id="그룹_178591" data-name="그룹 178591" clip-path="url(#clip-path-15)">
          <path id="패스_98971" data-name="패스 98971" d="M191.966,15.267h9.5a.4.4,0,0,0,.281-.678L191.622,4.463a.4.4,0,0,0-.678.281v9.5a1.022,1.022,0,0,0,1.022,1.022" transform="translate(-190.944 -4.346)"/>
        </g>
      </g>
    </g>
    <path id="패스_98972" data-name="패스 98972" d="M56.383,186.913c-.068-1.288-.151-2.837-.137-3.988h-.041c-.315,1.083-.7,2.234-1.165,3.508l-1.631,4.481h-.9l-1.494-4.4c-.438-1.3-.808-2.494-1.069-3.59h-.027c-.028,1.151-.1,2.7-.178,4.084l-.247,3.96H48.353L49,181.733h1.521l1.576,4.467c.384,1.137.7,2.151.932,3.111h.041c.233-.932.562-1.946.973-3.111l1.644-4.467h1.521l.576,9.236H56.616Z" transform="translate(-42.108 -158.262)" fill="#fff"/>
    <path id="패스_98973" data-name="패스 98973" d="M135.575,181.38a13.814,13.814,0,0,1,2.289-.178,3.794,3.794,0,0,1,2.59.767,2.483,2.483,0,0,1,.808,1.932,2.718,2.718,0,0,1-.713,1.973,3.827,3.827,0,0,1-2.823,1.014,4.1,4.1,0,0,1-.959-.082v3.7h-1.192Zm1.192,4.454a4,4,0,0,0,.987.1c1.439,0,2.316-.7,2.316-1.973,0-1.22-.863-1.809-2.179-1.809a5,5,0,0,0-1.124.1Z" transform="translate(-118.065 -157.8)" fill="#fff"/>
    <path id="패스_98974" data-name="패스 98974" d="M188.748,190.785a4.03,4.03,0,0,0,1.973.562c1.548,0,2.028-.987,2.014-1.727-.014-1.247-1.137-1.781-2.3-1.781h-.672v-.9h.672c.877,0,1.987-.452,1.987-1.507,0-.712-.452-1.343-1.562-1.343a3.273,3.273,0,0,0-1.782.589l-.315-.877a4.235,4.235,0,0,1,2.33-.685c1.754,0,2.549,1.041,2.549,2.124a2.212,2.212,0,0,1-1.644,2.1v.027a2.32,2.32,0,0,1,1.987,2.288c0,1.425-1.11,2.672-3.248,2.672a4.526,4.526,0,0,1-2.316-.6Z" transform="translate(-164.084 -159.462)" fill="#fff"/>
  </g>
</svg>
