<svg id="그룹_178468" data-name="그룹 178468" xmlns="http://www.w3.org/2000/svg" xmlns:xlink="http://www.w3.org/1999/xlink" width="18" height="24" viewBox="0 0 18 24">
  <defs>
    <clipPath id="clip-path">
      <rect id="사각형_154492" data-name="사각형 154492" width="18" height="24" fill="none"/>
    </clipPath>
    <clipPath id="clip-path-3">
      <rect id="사각형_154490" data-name="사각형 154490" width="5.439" height="5.357" fill="none"/>
    </clipPath>
  </defs>
  <g id="그룹_178467" data-name="그룹 178467" clip-path="url(#clip-path)">
    <g id="그룹_178466" data-name="그룹 178466" transform="translate(0 0)">
      <g id="그룹_178465" data-name="그룹 178465" clip-path="url(#clip-path)">
        <path id="패스_98867" data-name="패스 98867" d="M12.046,0H.449A.446.446,0,0,0,0,.442V23.556A.446.446,0,0,0,.449,24h17.1A.446.446,0,0,0,18,23.556V5.863a.555.555,0,0,0-.166-.4L12.448.163a.572.572,0,0,0-.4-.164" transform="translate(0 0.001)" fill="#c84fe0"/>
        <g id="그룹_178464" data-name="그룹 178464" transform="translate(12.282 0.275)" opacity="0.15">
          <g id="그룹_178463" data-name="그룹 178463">
            <g id="그룹_178462" data-name="그룹 178462" clip-path="url(#clip-path-3)">
              <path id="패스_98868" data-name="패스 98868" d="M191.452,9.7h4.732a.194.194,0,0,0,.14-.332L191.28,4.4a.2.2,0,0,0-.337.138V9.2a.505.505,0,0,0,.509.5" transform="translate(-190.943 -4.34)"/>
            </g>
          </g>
        </g>
        <path id="패스_98869" data-name="패스 98869" d="M44.208,181.887a8.527,8.527,0,0,1,1.247-.093,2.628,2.628,0,0,1,1.84.558,2.045,2.045,0,0,1,.64,1.606,2.346,2.346,0,0,1-.654,1.739,2.825,2.825,0,0,1-2.008.644,9.605,9.605,0,0,1-1.065-.053Zm.586,3.956a3.76,3.76,0,0,0,.593.033,1.733,1.733,0,0,0,1.934-1.9,1.609,1.609,0,0,0-1.84-1.726,3.38,3.38,0,0,0-.687.06Z" transform="translate(-41.365 -170.278)" fill="#fff"/>
        <path id="패스_98870" data-name="패스 98870" d="M113.952,183.429a2.109,2.109,0,0,1-2.109,2.356,2.063,2.063,0,0,1-2.042-2.27,2.138,2.138,0,0,1,2.109-2.35,2.049,2.049,0,0,1,2.042,2.263m-3.525.073c0,.956.526,1.812,1.449,1.812s1.456-.843,1.456-1.858c0-.889-.472-1.819-1.449-1.819s-1.456.883-1.456,1.865" transform="translate(-102.739 -169.689)" fill="#fff"/>
        <path id="패스_98871" data-name="패스 98871" d="M185.438,185.566a2.95,2.95,0,0,1-1.2.212,2.107,2.107,0,0,1-2.244-2.263,2.243,2.243,0,0,1,2.372-2.35,2.466,2.466,0,0,1,1.078.2l-.142.471a2.163,2.163,0,0,0-.917-.186,1.675,1.675,0,0,0-1.772,1.845,1.638,1.638,0,0,0,1.745,1.8,2.378,2.378,0,0,0,.957-.186Z" transform="translate(-170.288 -169.688)" fill="#fff"/>
      </g>
    </g>
  </g>
</svg>
