<svg id="그룹_178496" data-name="그룹 178496" xmlns="http://www.w3.org/2000/svg" xmlns:xlink="http://www.w3.org/1999/xlink" width="18" height="24" viewBox="0 0 18 24">
  <defs>
    <clipPath id="clip-path">
      <rect id="사각형_154505" data-name="사각형 154505" width="18" height="24" fill="none"/>
    </clipPath>
    <clipPath id="clip-path-3">
      <rect id="사각형_154503" data-name="사각형 154503" width="5.439" height="5.357" fill="none"/>
    </clipPath>
  </defs>
  <g id="그룹_178495" data-name="그룹 178495" clip-path="url(#clip-path)">
    <g id="그룹_178494" data-name="그룹 178494">
      <g id="그룹_178493" data-name="그룹 178493" clip-path="url(#clip-path)">
        <path id="패스_98886" data-name="패스 98886" d="M12.046,0H.449A.446.446,0,0,0,0,.443V23.557A.446.446,0,0,0,.449,24h17.1A.446.446,0,0,0,18,23.557V5.864a.555.555,0,0,0-.166-.4L12.448.164a.572.572,0,0,0-.4-.164" fill="#2099dc"/>
        <g id="그룹_178492" data-name="그룹 178492" transform="translate(12.282 0.275)" opacity="0.15">
          <g id="그룹_178491" data-name="그룹 178491">
            <g id="그룹_178490" data-name="그룹 178490" clip-path="url(#clip-path-3)">
              <path id="패스_98887" data-name="패스 98887" d="M191.452,9.7h4.732a.194.194,0,0,0,.14-.332L191.28,4.4a.2.2,0,0,0-.337.138V9.2a.505.505,0,0,0,.509.5" transform="translate(-190.943 -4.341)"/>
            </g>
          </g>
        </g>
        <path id="패스_98888" data-name="패스 98888" d="M68.137,184.134H66.349v1.633h1.993v.491H65.755v-4.53h2.484v.491h-1.89v1.432h1.788Z" transform="translate(-61.525 -170.215)" fill="#fff"/>
        <path id="패스_98889" data-name="패스 98889" d="M117.961,181.284a6.984,6.984,0,0,1,1.14-.087,1.909,1.909,0,0,1,1.29.376,1.209,1.209,0,0,1,.4.948,1.322,1.322,0,0,1-.355.968,1.923,1.923,0,0,1-1.406.5,2.072,2.072,0,0,1-.478-.04v1.815h-.594Zm.594,2.184a2.022,2.022,0,0,0,.491.047c.717,0,1.153-.343,1.153-.968,0-.6-.43-.887-1.085-.887a2.525,2.525,0,0,0-.56.047Z" transform="translate(-110.374 -169.718)" fill="#fff"/>
        <path id="패스_98890" data-name="패스 98890" d="M170.954,184.452a2.128,2.128,0,0,0,1.065.3c.607,0,.962-.316.962-.773,0-.423-.246-.665-.867-.9-.751-.262-1.215-.645-1.215-1.284a1.318,1.318,0,0,1,1.488-1.23,2.116,2.116,0,0,1,1.017.222l-.164.477a1.854,1.854,0,0,0-.874-.215c-.628,0-.867.37-.867.679,0,.423.28.632.914.874.778.3,1.174.665,1.174,1.331,0,.7-.526,1.3-1.611,1.3a2.406,2.406,0,0,1-1.174-.289Z" transform="translate(-159.818 -169.122)" fill="#fff"/>
      </g>
    </g>
  </g>
</svg>
