<svg id="그룹_178597" data-name="그룹 178597" xmlns="http://www.w3.org/2000/svg" xmlns:xlink="http://www.w3.org/1999/xlink" width="102.065" height="138.175" viewBox="0 0 102.065 138.175">
  <defs>
    <clipPath id="clip-path">
      <rect id="사각형_154553" data-name="사각형 154553" width="102.065" height="138.175" fill="none"/>
    </clipPath>
    <clipPath id="clip-path-3">
      <rect id="사각형_154551" data-name="사각형 154551" width="30.842" height="30.842" fill="none"/>
    </clipPath>
  </defs>
  <g id="그룹_178609" data-name="그룹 178609" clip-path="url(#clip-path)">
    <g id="그룹_178608" data-name="그룹 178608">
      <g id="그룹_178607" data-name="그룹 178607" clip-path="url(#clip-path)">
        <path id="패스_98979" data-name="패스 98979" d="M68.307,0H2.549A2.549,2.549,0,0,0,0,2.549V135.627a2.549,2.549,0,0,0,2.549,2.549H99.517a2.549,2.549,0,0,0,2.549-2.549V33.759a3.22,3.22,0,0,0-.943-2.277L70.584.943A3.22,3.22,0,0,0,68.307,0" fill="#999"/>
        <g id="그룹_178606" data-name="그룹 178606" transform="translate(69.64 1.583)" opacity="0.15">
          <g id="그룹_178605" data-name="그룹 178605">
            <g id="그룹_178604" data-name="그룹 178604" clip-path="url(#clip-path-3)">
              <path id="패스_98980" data-name="패스 98980" d="M193.829,35.183h26.833a1.121,1.121,0,0,0,.793-1.913l-28.6-28.6a1.121,1.121,0,0,0-1.914.793V32.3a2.886,2.886,0,0,0,2.886,2.886" transform="translate(-190.943 -4.341)"/>
            </g>
          </g>
        </g>
        <path id="패스_98981" data-name="패스 98981" d="M58.121,182.671h16.17v3.383H62.038v7.8h11.4V197.2h-11.4v7.871H74.433v3.383H58.121Z" transform="translate(-36.923 -116.048)" fill="#fff"/>
        <path id="패스_98982" data-name="패스 98982" d="M109.124,182.671h19.981v3.383h-8.014v22.4h-3.918v-22.4h-8.049Z" transform="translate(-69.325 -116.048)" fill="#fff"/>
        <path id="패스_98983" data-name="패스 98983" d="M178.171,185.292c-4.452-.018-7.747,3.4-7.764,9.652.018,6.286,3.33,9.67,7.764,9.652a6.38,6.38,0,0,0,6.66-5.093l3.954.036c-.82,5.093-4.969,8.655-10.65,8.655-6.714,0-11.611-5-11.611-13.249s4.933-13.249,11.611-13.249c5.45,0,9.777,3.223,10.65,8.762h-3.954c-.623-3.33-3.384-5.182-6.66-5.164" transform="translate(-105.79 -115.428)" fill="#fff"/>
      </g>
    </g>
  </g>
</svg>
