<svg id="그룹_178475" data-name="그룹 178475" xmlns="http://www.w3.org/2000/svg" xmlns:xlink="http://www.w3.org/1999/xlink" width="18" height="24" viewBox="0 0 18 24">
  <defs>
    <clipPath id="clip-path">
      <rect id="사각형_154495" data-name="사각형 154495" width="18" height="24" fill="none"/>
    </clipPath>
    <clipPath id="clip-path-3">
      <rect id="사각형_154493" data-name="사각형 154493" width="5.439" height="5.357" fill="none"/>
    </clipPath>
  </defs>
  <g id="그룹_178474" data-name="그룹 178474" clip-path="url(#clip-path)">
    <g id="그룹_178473" data-name="그룹 178473" transform="translate(0 0)">
      <g id="그룹_178472" data-name="그룹 178472" clip-path="url(#clip-path)">
        <path id="패스_98872" data-name="패스 98872" d="M12.046,0H.449A.446.446,0,0,0,0,.442V23.556A.446.446,0,0,0,.449,24h17.1A.446.446,0,0,0,18,23.556V5.863a.555.555,0,0,0-.166-.4L12.448.163a.572.572,0,0,0-.4-.164" transform="translate(0 0.001)" fill="#ff3b55"/>
        <g id="그룹_178471" data-name="그룹 178471" transform="translate(12.282 0.275)" opacity="0.15">
          <g id="그룹_178470" data-name="그룹 178470">
            <g id="그룹_178469" data-name="그룹 178469" clip-path="url(#clip-path-3)">
              <path id="패스_98873" data-name="패스 98873" d="M191.452,9.7h4.732a.194.194,0,0,0,.14-.332L191.28,4.4a.2.2,0,0,0-.337.138V9.2a.505.505,0,0,0,.509.5" transform="translate(-190.943 -4.34)"/>
            </g>
          </g>
        </g>
        <path id="패스_98874" data-name="패스 98874" d="M63.436,181.633h.586v2.993c0,1.188-.593,1.553-1.375,1.553a1.925,1.925,0,0,1-.627-.106l.088-.471a1.418,1.418,0,0,0,.492.086c.526,0,.836-.232.836-1.108Z" transform="translate(-58.032 -170.127)" fill="#fff"/>
        <path id="패스_98875" data-name="패스 98875" d="M108.333,181.2a6.9,6.9,0,0,1,1.125-.086,1.886,1.886,0,0,1,1.274.372,1.194,1.194,0,0,1,.4.936,1.305,1.305,0,0,1-.35.956,1.9,1.9,0,0,1-1.388.491,2.048,2.048,0,0,1-.472-.04v1.792h-.586Zm.586,2.157a2,2,0,0,0,.485.046c.708,0,1.139-.339,1.139-.956,0-.591-.425-.876-1.072-.876a2.5,2.5,0,0,0-.553.046Z" transform="translate(-101.365 -169.636)" fill="#fff"/>
        <path id="패스_98876" data-name="패스 98876" d="M163.613,185.221a4.288,4.288,0,0,1-1.395.246,2.356,2.356,0,0,1-1.7-.591,2.366,2.366,0,0,1,1.826-3.976,2.845,2.845,0,0,1,1.132.206l-.141.471a2.386,2.386,0,0,0-1-.192,1.686,1.686,0,0,0-1.826,1.8,1.652,1.652,0,0,0,1.752,1.805,1.938,1.938,0,0,0,.782-.119v-1.334h-.923v-.465h1.5Z" transform="translate(-149.602 -169.44)" fill="#fff"/>
      </g>
    </g>
  </g>
</svg>
