<svg xmlns="http://www.w3.org/2000/svg" xmlns:xlink="http://www.w3.org/1999/xlink" width="36.095" height="49" viewBox="0 0 36.095 49">
  <defs>
    <clipPath id="clip-path">
      <rect id="사각형_154535" data-name="사각형 154535" width="10.921" height="10.922" fill="none"/>
    </clipPath>
  </defs>
  <g id="그룹_178774" data-name="그룹 178774" transform="translate(-262 -82.069)">
    <path id="패스_98932" data-name="패스 98932" d="M2052.813,637.307h-23a1.078,1.078,0,0,0-1,1v47a1.078,1.078,0,0,0,1,1h34a1.078,1.078,0,0,0,1-1v-36c0-.3.214-.786,0-1l-11-10c-.214-.214-.7-1-1-1" transform="translate(-1766.813 -555.237)" fill="#ff5f33"/>
    <g id="그룹_178569" data-name="그룹 178569" transform="translate(286.692 82.905)" opacity="0.15">
      <g id="그룹_178568" data-name="그룹 178568">
        <g id="그룹_178567" data-name="그룹 178567" clip-path="url(#clip-path)">
          <path id="패스_98933" data-name="패스 98933" d="M2220.809,652.844h9.5a.4.4,0,0,0,.281-.678l-10.127-10.127a.4.4,0,0,0-.677.281v9.5a1.022,1.022,0,0,0,1.022,1.022" transform="translate(-2219.788 -641.922)"/>
        </g>
      </g>
    </g>
    <path id="패스_98934" data-name="패스 98934" d="M2072.129,822.071c-.068-1.272-.149-2.8-.135-3.938h-.041c-.311,1.069-.69,2.206-1.15,3.464l-1.61,4.425h-.893l-1.475-4.344c-.433-1.286-.8-2.463-1.055-3.546h-.027c-.027,1.137-.095,2.666-.176,4.033l-.243,3.911H2064.2l.636-9.121h1.5l1.556,4.412c.379,1.123.69,2.124.92,3.072h.041c.23-.92.555-1.922.961-3.072l1.624-4.412h1.5l.568,9.121h-1.15Z" transform="translate(-1797.602 -711.444)" fill="#fff"/>
    <path id="패스_98935" data-name="패스 98935" d="M2154.472,820.418c0,3.14-1.908,4.8-4.236,4.8-2.409,0-4.1-1.867-4.1-4.628,0-2.9,1.8-4.79,4.235-4.79,2.49,0,4.1,1.908,4.1,4.614m-7.077.149c0,1.949,1.056,3.694,2.909,3.694s2.923-1.719,2.923-3.789c0-1.813-.947-3.708-2.909-3.708s-2.923,1.8-2.923,3.8" transform="translate(-1868.957 -710.441)" fill="#fff"/>
    <path id="패스_98936" data-name="패스 98936" d="M2217.954,826.078l-2.977-9.121h1.272l1.421,4.493c.392,1.231.731,2.341.974,3.41h.027c.257-1.055.636-2.206,1.042-3.4l1.543-4.506h1.258l-3.261,9.121Z" transform="translate(-1928.907 -711.445)" fill="#fff"/>
  </g>
</svg>
