<svg id="그룹_178503" data-name="그룹 178503" xmlns="http://www.w3.org/2000/svg" xmlns:xlink="http://www.w3.org/1999/xlink" width="18" height="24" viewBox="0 0 18 24">
  <defs>
    <clipPath id="clip-path">
      <rect id="사각형_154508" data-name="사각형 154508" width="18" height="24" fill="none"/>
    </clipPath>
    <clipPath id="clip-path-3">
      <rect id="사각형_154506" data-name="사각형 154506" width="5.439" height="5.357" fill="none"/>
    </clipPath>
  </defs>
  <g id="그룹_178502" data-name="그룹 178502" clip-path="url(#clip-path)">
    <g id="그룹_178501" data-name="그룹 178501">
      <g id="그룹_178500" data-name="그룹 178500" clip-path="url(#clip-path)">
        <path id="패스_98891" data-name="패스 98891" d="M12.046,0H.449A.446.446,0,0,0,0,.443V23.557A.446.446,0,0,0,.449,24h17.1A.446.446,0,0,0,18,23.557V5.864a.555.555,0,0,0-.166-.4L12.448.164a.572.572,0,0,0-.4-.164" fill="#fdcd02"/>
        <g id="그룹_178499" data-name="그룹 178499" transform="translate(12.282 0.275)" opacity="0.15">
          <g id="그룹_178498" data-name="그룹 178498">
            <g id="그룹_178497" data-name="그룹 178497" clip-path="url(#clip-path-3)">
              <path id="패스_98892" data-name="패스 98892" d="M191.453,9.7h4.732a.194.194,0,0,0,.14-.332L191.281,4.4a.2.2,0,0,0-.337.138V9.2a.505.505,0,0,0,.509.5" transform="translate(-190.944 -4.341)"/>
            </g>
          </g>
        </g>
        <path id="패스_98893" data-name="패스 98893" d="M52.352,184.269c-.034-.632-.075-1.391-.068-1.956h-.02c-.157.531-.348,1.1-.58,1.721l-.812,2.2h-.45l-.744-2.158c-.218-.638-.4-1.223-.532-1.761h-.014c-.014.565-.048,1.324-.089,2l-.123,1.942h-.566l.321-4.53h.757l.785,2.191c.191.558.348,1.055.464,1.526H50.7c.116-.457.28-.954.485-1.526L52,181.728h.758l.287,4.53h-.58Z" transform="translate(-45.243 -170.216)" fill="#fff"/>
        <path id="패스_98894" data-name="패스 98894" d="M135.575,181.284a6.984,6.984,0,0,1,1.14-.087,1.909,1.909,0,0,1,1.29.376,1.209,1.209,0,0,1,.4.948,1.322,1.322,0,0,1-.355.968,1.923,1.923,0,0,1-1.406.5,2.072,2.072,0,0,1-.478-.04v1.815h-.594Zm.594,2.184a2.022,2.022,0,0,0,.491.047c.717,0,1.153-.343,1.153-.968,0-.6-.43-.887-1.085-.887a2.525,2.525,0,0,0-.56.047Z" transform="translate(-126.855 -169.718)" fill="#fff"/>
        <path id="패스_98895" data-name="패스 98895" d="M188.583,186.871a2.03,2.03,0,0,0,.983.276c.771,0,1.01-.484,1-.847-.007-.612-.566-.874-1.147-.874h-.334v-.444h.334c.437,0,.99-.222.99-.739,0-.349-.225-.659-.778-.659a1.647,1.647,0,0,0-.887.289l-.157-.43a2.132,2.132,0,0,1,1.16-.336c.874,0,1.269.511,1.269,1.042a1.087,1.087,0,0,1-.819,1.028v.013a1.144,1.144,0,0,1,.99,1.122c0,.7-.553,1.311-1.617,1.311a2.28,2.28,0,0,1-1.153-.3Z" transform="translate(-176.3 -171.507)" fill="#fff"/>
      </g>
    </g>
  </g>
</svg>
