<svg id="그룹_178447" data-name="그룹 178447" xmlns="http://www.w3.org/2000/svg" xmlns:xlink="http://www.w3.org/1999/xlink" width="18" height="24" viewBox="0 0 18 24">
  <defs>
    <clipPath id="clip-path">
      <rect id="사각형_154482" data-name="사각형 154482" width="18" height="24" fill="none"/>
    </clipPath>
    <clipPath id="clip-path-3">
      <rect id="사각형_154480" data-name="사각형 154480" width="5.439" height="5.357" fill="none"/>
    </clipPath>
  </defs>
  <g id="그룹_178446" data-name="그룹 178446" clip-path="url(#clip-path)">
    <g id="그룹_178445" data-name="그룹 178445">
      <g id="그룹_178444" data-name="그룹 178444" clip-path="url(#clip-path)">
        <path id="패스_98853" data-name="패스 98853" d="M12.046,0H.449A.446.446,0,0,0,0,.443V23.557A.446.446,0,0,0,.449,24h17.1A.446.446,0,0,0,18,23.557V5.864a.555.555,0,0,0-.166-.4L12.448.164a.572.572,0,0,0-.4-.164" fill="#ff7081"/>
        <g id="그룹_178443" data-name="그룹 178443" transform="translate(12.282 0.275)" opacity="0.15">
          <g id="그룹_178442" data-name="그룹 178442">
            <g id="그룹_178441" data-name="그룹 178441" clip-path="url(#clip-path-3)">
              <path id="패스_98854" data-name="패스 98854" d="M191.452,9.7h4.732a.194.194,0,0,0,.14-.332L191.28,4.4a.2.2,0,0,0-.337.138V9.2a.505.505,0,0,0,.509.5" transform="translate(-190.943 -4.341)"/>
            </g>
          </g>
        </g>
        <path id="패스_98855" data-name="패스 98855" d="M58.144,181.881a6.9,6.9,0,0,1,1.125-.086,1.886,1.886,0,0,1,1.274.372,1.194,1.194,0,0,1,.4.936,1.305,1.305,0,0,1-.35.956,1.9,1.9,0,0,1-1.388.491,2.047,2.047,0,0,1-.472-.04V186.3h-.586Zm.586,2.157a2,2,0,0,0,.485.046c.708,0,1.139-.339,1.139-.956,0-.591-.425-.876-1.072-.876a2.5,2.5,0,0,0-.553.046Z" transform="translate(-54.404 -170.279)" fill="#fff"/>
        <path id="패스_98856" data-name="패스 98856" d="M113.887,181.888a8.529,8.529,0,0,1,1.247-.093,2.628,2.628,0,0,1,1.84.558,2.045,2.045,0,0,1,.64,1.606,2.346,2.346,0,0,1-.654,1.739,2.825,2.825,0,0,1-2.008.644,9.609,9.609,0,0,1-1.065-.053Zm.586,3.956a3.759,3.759,0,0,0,.593.033,1.733,1.733,0,0,0,1.934-1.9,1.609,1.609,0,0,0-1.84-1.726,3.379,3.379,0,0,0-.687.06Z" transform="translate(-106.562 -170.279)" fill="#fff"/>
        <path id="패스_98857" data-name="패스 98857" d="M183.671,182.319h2.446v.485h-1.86v1.487h1.718v.478h-1.718v2.024h-.586Z" transform="translate(-171.857 -170.77)" fill="#fff"/>
      </g>
    </g>
  </g>
</svg>
