<svg id="그룹_178489" data-name="그룹 178489" xmlns="http://www.w3.org/2000/svg" xmlns:xlink="http://www.w3.org/1999/xlink" width="18" height="24" viewBox="0 0 18 24">
  <defs>
    <clipPath id="clip-path">
      <rect id="사각형_154502" data-name="사각형 154502" width="18" height="24" fill="none"/>
    </clipPath>
    <clipPath id="clip-path-3">
      <rect id="사각형_154500" data-name="사각형 154500" width="5.439" height="5.357" fill="none"/>
    </clipPath>
  </defs>
  <g id="그룹_178488" data-name="그룹 178488" clip-path="url(#clip-path)">
    <g id="그룹_178487" data-name="그룹 178487">
      <g id="그룹_178486" data-name="그룹 178486" clip-path="url(#clip-path)">
        <path id="패스_98881" data-name="패스 98881" d="M12.046,0H.449A.446.446,0,0,0,0,.443V23.557A.446.446,0,0,0,.449,24h17.1A.446.446,0,0,0,18,23.557V5.864a.555.555,0,0,0-.166-.4L12.448.164a.572.572,0,0,0-.4-.164" fill="#0af"/>
        <g id="그룹_178485" data-name="그룹 178485" transform="translate(12.282 0.275)" opacity="0.15">
          <g id="그룹_178484" data-name="그룹 178484">
            <g id="그룹_178483" data-name="그룹 178483" clip-path="url(#clip-path-3)">
              <path id="패스_98882" data-name="패스 98882" d="M191.452,9.7h4.732a.194.194,0,0,0,.14-.332L191.28,4.4a.2.2,0,0,0-.337.138V9.2a.505.505,0,0,0,.509.5" transform="translate(-190.943 -4.341)"/>
            </g>
          </g>
        </g>
        <path id="패스_98883" data-name="패스 98883" d="M50.705,181.2a6.9,6.9,0,0,1,1.125-.086,1.885,1.885,0,0,1,1.274.372,1.194,1.194,0,0,1,.4.936,1.305,1.305,0,0,1-.35.956,1.9,1.9,0,0,1-1.388.491,2.048,2.048,0,0,1-.472-.04v1.792h-.586Zm.586,2.157a2,2,0,0,0,.485.046c.708,0,1.139-.339,1.139-.956,0-.591-.425-.876-1.072-.876a2.5,2.5,0,0,0-.553.046Z" transform="translate(-47.444 -169.637)" fill="#fff"/>
        <path id="패스_98884" data-name="패스 98884" d="M106.449,186.108v-4.474h.64l1.456,2.263a12.6,12.6,0,0,1,.815,1.454l.014-.007c-.054-.6-.067-1.142-.067-1.839v-1.872h.553v4.474h-.593l-1.442-2.27a14.131,14.131,0,0,1-.849-1.493l-.02.007c.034.564.047,1.1.047,1.845v1.912Z" transform="translate(-99.602 -170.128)" fill="#fff"/>
        <path id="패스_98885" data-name="패스 98885" d="M174.931,185.222a4.289,4.289,0,0,1-1.4.246,2.356,2.356,0,0,1-1.7-.591,2.366,2.366,0,0,1,1.826-3.976,2.845,2.845,0,0,1,1.132.206l-.142.471a2.386,2.386,0,0,0-1-.193,1.686,1.686,0,0,0-1.826,1.8,1.652,1.652,0,0,0,1.752,1.805,1.938,1.938,0,0,0,.782-.119v-1.334h-.923v-.465h1.5Z" transform="translate(-160.192 -169.441)" fill="#fff"/>
      </g>
    </g>
  </g>
</svg>
