<svg id="그룹_178510" data-name="그룹 178510" xmlns="http://www.w3.org/2000/svg" xmlns:xlink="http://www.w3.org/1999/xlink" width="18" height="24" viewBox="0 0 18 24">
  <defs>
    <clipPath id="clip-path">
      <rect id="사각형_154511" data-name="사각형 154511" width="18" height="24" fill="none"/>
    </clipPath>
    <clipPath id="clip-path-3">
      <rect id="사각형_154509" data-name="사각형 154509" width="5.439" height="5.357" fill="none"/>
    </clipPath>
  </defs>
  <g id="그룹_178509" data-name="그룹 178509" clip-path="url(#clip-path)">
    <g id="그룹_178508" data-name="그룹 178508" transform="translate(0 0)">
      <g id="그룹_178507" data-name="그룹 178507" clip-path="url(#clip-path)">
        <path id="패스_98896" data-name="패스 98896" d="M12.046,0H.449A.446.446,0,0,0,0,.442V23.556A.446.446,0,0,0,.449,24h17.1A.446.446,0,0,0,18,23.556V5.863a.555.555,0,0,0-.166-.4L12.448.163a.572.572,0,0,0-.4-.164" transform="translate(0 0.001)" fill="#10b8cf"/>
        <g id="그룹_178506" data-name="그룹 178506" transform="translate(12.282 0.275)" opacity="0.15">
          <g id="그룹_178505" data-name="그룹 178505">
            <g id="그룹_178504" data-name="그룹 178504" clip-path="url(#clip-path-3)">
              <path id="패스_98897" data-name="패스 98897" d="M191.452,9.7h4.732a.194.194,0,0,0,.14-.332L191.28,4.4a.2.2,0,0,0-.337.138V9.2a.505.505,0,0,0,.509.5" transform="translate(-190.943 -4.34)"/>
            </g>
          </g>
        </g>
        <path id="패스_98898" data-name="패스 98898" d="M57.254,181.88a6.9,6.9,0,0,1,1.125-.086,1.885,1.885,0,0,1,1.274.372,1.194,1.194,0,0,1,.4.936,1.305,1.305,0,0,1-.35.956,1.9,1.9,0,0,1-1.388.491,2.047,2.047,0,0,1-.472-.04V186.3h-.586Zm.586,2.157a2,2,0,0,0,.485.046c.708,0,1.139-.339,1.139-.956,0-.591-.425-.876-1.072-.876a2.5,2.5,0,0,0-.553.046Z" transform="translate(-53.571 -170.278)" fill="#fff"/>
        <path id="패스_98899" data-name="패스 98899" d="M109.584,185.009a2.1,2.1,0,0,0,1.051.292c.6,0,.95-.312.95-.763,0-.418-.243-.657-.856-.889-.741-.259-1.2-.637-1.2-1.268A1.3,1.3,0,0,1,111,181.166a2.09,2.09,0,0,1,1,.219l-.162.471a1.83,1.83,0,0,0-.863-.212c-.62,0-.856.365-.856.67,0,.418.276.624.9.863.768.292,1.159.657,1.159,1.314,0,.69-.519,1.288-1.59,1.288a2.376,2.376,0,0,1-1.159-.285Z" transform="translate(-102.397 -169.689)" fill="#fff"/>
        <path id="패스_98900" data-name="패스 98900" d="M164.655,181.887a8.526,8.526,0,0,1,1.247-.093,2.627,2.627,0,0,1,1.84.558,2.044,2.044,0,0,1,.64,1.606,2.346,2.346,0,0,1-.654,1.739,2.825,2.825,0,0,1-2.008.644,9.6,9.6,0,0,1-1.065-.053Zm.586,3.956a3.76,3.76,0,0,0,.593.033,1.733,1.733,0,0,0,1.934-1.9,1.609,1.609,0,0,0-1.84-1.726,3.38,3.38,0,0,0-.687.06Z" transform="translate(-154.064 -170.278)" fill="#fff"/>
      </g>
    </g>
  </g>
</svg>
