<svg xmlns="http://www.w3.org/2000/svg" xmlns:xlink="http://www.w3.org/1999/xlink" width="36.143" height="48.93" viewBox="0 0 36.143 48.93">
  <defs>
    <clipPath id="clip-path">
      <rect id="사각형_154534" data-name="사각형 154534" width="10.921" height="10.922" fill="none"/>
    </clipPath>
  </defs>
  <g id="그룹_178775" data-name="그룹 178775" transform="translate(-349.374 -82.345)">
    <path id="패스_98927" data-name="패스 98927" d="M2729.313,637.582h-23.286a.9.9,0,0,0-.9.9V685.61a.9.9,0,0,0,.9.9h34.338a.9.9,0,0,0,.9-.9V649.537a1.139,1.139,0,0,0-.334-.806l-10.814-10.814a1.139,1.139,0,0,0-.806-.334" transform="translate(-2355.75 -555.237)" fill="#ffaf00"/>
    <g id="그룹_178566" data-name="그룹 178566" transform="translate(374.035 82.905)" opacity="0.15">
      <g id="그룹_178565" data-name="그룹 178565">
        <g id="그룹_178564" data-name="그룹 178564" clip-path="url(#clip-path)">
          <path id="패스_98928" data-name="패스 98928" d="M2897.09,652.844h9.5a.4.4,0,0,0,.281-.678l-10.127-10.127a.4.4,0,0,0-.677.281v9.5a1.022,1.022,0,0,0,1.022,1.022" transform="translate(-2896.068 -641.922)"/>
        </g>
      </g>
    </g>
    <path id="패스_98929" data-name="패스 98929" d="M2764.158,817.958h-2.774v-1h6.752v1h-2.788v8.119h-1.191Z" transform="translate(-2404.744 -711.445)" fill="#fff"/>
    <path id="패스_98930" data-name="패스 98930" d="M2824.17,826.078l-1.164-2.016c-.474-.771-.771-1.272-1.055-1.8h-.027c-.257.528-.514,1.015-.988,1.813l-1.1,2h-1.353l2.788-4.615-2.679-4.506h1.367l1.2,2.138c.338.6.6,1.056.839,1.543h.041c.257-.541.487-.961.826-1.543l1.245-2.138h1.353L2822.7,821.4l2.842,4.682Z" transform="translate(-2454.472 -711.445)" fill="#fff"/>
    <path id="패스_98931" data-name="패스 98931" d="M2879.2,817.958h-2.774v-1h6.752v1H2880.4v8.119H2879.2Z" transform="translate(-2504.932 -711.445)" fill="#fff"/>
  </g>
</svg>
