<svg id="그룹_178454" data-name="그룹 178454" xmlns="http://www.w3.org/2000/svg" xmlns:xlink="http://www.w3.org/1999/xlink" width="18" height="24" viewBox="0 0 18 24">
  <defs>
    <clipPath id="clip-path">
      <rect id="사각형_154485" data-name="사각형 154485" width="18" height="24" fill="none"/>
    </clipPath>
    <clipPath id="clip-path-3">
      <rect id="사각형_154483" data-name="사각형 154483" width="5.439" height="5.357" fill="none"/>
    </clipPath>
  </defs>
  <g id="그룹_178453" data-name="그룹 178453" clip-path="url(#clip-path)">
    <g id="그룹_178452" data-name="그룹 178452">
      <g id="그룹_178451" data-name="그룹 178451" clip-path="url(#clip-path)">
        <path id="패스_98858" data-name="패스 98858" d="M12.046,0H.449A.446.446,0,0,0,0,.443V23.557A.446.446,0,0,0,.449,24h17.1A.446.446,0,0,0,18,23.557V5.864a.555.555,0,0,0-.166-.4L12.448.164a.572.572,0,0,0-.4-.164" transform="translate(0 0)" fill="#fe8000"/>
        <g id="그룹_178450" data-name="그룹 178450" transform="translate(12.282 0.275)" opacity="0.15">
          <g id="그룹_178449" data-name="그룹 178449">
            <g id="그룹_178448" data-name="그룹 178448" clip-path="url(#clip-path-3)">
              <path id="패스_98859" data-name="패스 98859" d="M191.452,9.7h4.732a.194.194,0,0,0,.14-.332L191.28,4.4a.2.2,0,0,0-.337.138V9.2a.505.505,0,0,0,.509.5" transform="translate(-190.943 -4.341)"/>
            </g>
          </g>
        </g>
        <path id="패스_98860" data-name="패스 98860" d="M64.908,186.257l-.587-1c-.239-.383-.389-.632-.532-.894h-.014c-.13.262-.259.5-.5.9l-.553.995h-.682l1.406-2.292L62.1,181.727h.689l.607,1.062c.171.3.3.524.423.766h.02c.13-.269.246-.477.416-.766l.628-1.062h.682l-1.4,2.2,1.433,2.326Z" transform="translate(-58.051 -170.215)" fill="#fff"/>
        <path id="패스_98861" data-name="패스 98861" d="M128.041,181.728h.594v4.04H130.6v.491h-2.559Z" transform="translate(-119.806 -170.216)" fill="#fff"/>
        <path id="패스_98862" data-name="패스 98862" d="M174.667,184.452a2.128,2.128,0,0,0,1.065.3c.607,0,.962-.316.962-.773,0-.423-.246-.665-.867-.9-.751-.262-1.215-.645-1.215-1.284a1.318,1.318,0,0,1,1.488-1.23,2.116,2.116,0,0,1,1.017.222l-.164.477a1.854,1.854,0,0,0-.874-.215c-.628,0-.867.37-.867.679,0,.423.28.632.915.874.778.3,1.174.665,1.174,1.331,0,.7-.526,1.3-1.611,1.3a2.406,2.406,0,0,1-1.174-.289Z" transform="translate(-163.292 -169.122)" fill="#fff"/>
      </g>
    </g>
  </g>
</svg>
