<svg id="그룹_178461" data-name="그룹 178461" xmlns="http://www.w3.org/2000/svg" xmlns:xlink="http://www.w3.org/1999/xlink" width="18" height="24" viewBox="0 0 18 24">
  <defs>
    <clipPath id="clip-path">
      <rect id="사각형_154489" data-name="사각형 154489" width="18" height="24" fill="none"/>
    </clipPath>
    <clipPath id="clip-path-3">
      <rect id="사각형_154486" data-name="사각형 154486" width="5.439" height="5.357" fill="none"/>
    </clipPath>
  </defs>
  <g id="그룹_178460" data-name="그룹 178460" clip-path="url(#clip-path)">
    <g id="그룹_178459" data-name="그룹 178459">
      <g id="그룹_178458" data-name="그룹 178458" clip-path="url(#clip-path)">
        <path id="패스_98863" data-name="패스 98863" d="M12.046,0H.449A.446.446,0,0,0,0,.443V23.557A.446.446,0,0,0,.449,24h17.1A.446.446,0,0,0,18,23.557V5.864a.555.555,0,0,0-.166-.4L12.448.164a.572.572,0,0,0-.4-.164" fill="#a689ff"/>
        <g id="그룹_178457" data-name="그룹 178457" transform="translate(12.282 0.275)" opacity="0.15">
          <g id="그룹_178456" data-name="그룹 178456">
            <g id="그룹_178455" data-name="그룹 178455" clip-path="url(#clip-path-3)">
              <path id="패스_98864" data-name="패스 98864" d="M191.452,9.7h4.732a.194.194,0,0,0,.14-.332L191.28,4.4a.2.2,0,0,0-.337.138V9.2a.505.505,0,0,0,.509.5" transform="translate(-190.943 -4.341)"/>
            </g>
          </g>
        </g>
        <path id="패스_98865" data-name="패스 98865" d="M74.281,183.51l2.52-3.631v-.02H74.5v-.484h3.066v.352l-2.507,3.617v.02H77.6v.484H74.281Z" transform="translate(-69.503 -168.012)" fill="#fff"/>
        <rect id="사각형_154487" data-name="사각형 154487" width="0.586" height="4.474" transform="translate(8.815 11.363)" fill="#fff"/>
        <path id="패스_98866" data-name="패스 98866" d="M162.085,178.937a6.894,6.894,0,0,1,1.125-.086,1.886,1.886,0,0,1,1.274.372,1.194,1.194,0,0,1,.4.936,1.306,1.306,0,0,1-.35.956,1.9,1.9,0,0,1-1.388.491,2.047,2.047,0,0,1-.472-.04v1.792h-.586Zm.586,2.157a2,2,0,0,0,.485.046c.708,0,1.139-.339,1.139-.956,0-.591-.424-.876-1.072-.876a2.5,2.5,0,0,0-.553.046Z" transform="translate(-151.66 -167.521)" fill="#fff"/>
      </g>
    </g>
  </g>
</svg>
