<svg xmlns="http://www.w3.org/2000/svg" width="18" height="17" viewBox="0 0 18 17">
  <g id="그룹_178298" data-name="그룹 178298" transform="translate(-352 -144)">
    <path id="사각형_107" data-name="사각형 107" d="M0,0H18a0,0,0,0,1,0,0V9a1,1,0,0,1-1,1H1A1,1,0,0,1,0,9V0A0,0,0,0,1,0,0Z" transform="translate(352 151)" fill="#d6d6d6"/>
    <path id="패스_38" data-name="패스 38" d="M-5424,428h-18v-5.143a.809.809,0,0,1,.75-.857h5.25l1.5,1.714h9.75a.809.809,0,0,1,.75.857Z" transform="translate(5794 -278)" fill="#d6d6d6"/>
  </g>
</svg>
