<svg xmlns="http://www.w3.org/2000/svg" width="17" height="17" viewBox="0 0 17 17">
  <g id="그룹_177962" data-name="그룹 177962" transform="translate(0.5 0.5)">
    <g id="그룹_177981" data-name="그룹 177981">
      <rect id="사각형_1176" data-name="사각형 1176" width="16" height="16" rx="2" fill="#fff" stroke="#a4a4a4" stroke-linecap="round" stroke-linejoin="round" stroke-width="1"/>
      <path id="다각형_10" data-name="다각형 10" d="M4.616.461a.5.5,0,0,1,.768,0L9.317,5.18A.5.5,0,0,1,8.932,6H1.068a.5.5,0,0,1-.384-.82Z" transform="translate(13 12) rotate(180)" fill="#1a73e8"/>
    </g>
    <g id="그룹_177982" data-name="그룹 177982">
      <rect id="사각형_1176-2" data-name="사각형 1176" width="16" height="16" rx="2" fill="#fff" stroke="#a4a4a4" stroke-linecap="round" stroke-linejoin="round" stroke-width="1"/>
      <path id="다각형_10-2" data-name="다각형 10" d="M4.616.461a.5.5,0,0,1,.768,0L9.317,5.18A.5.5,0,0,1,8.932,6H1.068a.5.5,0,0,1-.384-.82Z" transform="translate(13 12) rotate(180)" fill="#1a73e8"/>
    </g>
  </g>
</svg>
