<svg xmlns="http://www.w3.org/2000/svg" width="32" height="32" viewBox="0 0 32 32">
  <g id="그룹_178042" data-name="그룹 178042" transform="translate(-234 -136.5)">
    <path id="패스_98735" data-name="패스 98735" d="M-5505.869,2238.593v-4l-2.973-.33a9.289,9.289,0,0,0-1-2.408l1.868-2.333-2.829-2.829-2.333,1.868a9.27,9.27,0,0,0-2.408-1l-.329-2.971h-4l-.331,2.971a9.24,9.24,0,0,0-2.406,1l-2.334-1.868-2.83,2.829,1.868,2.333a9.392,9.392,0,0,0-1,2.408l-2.971.33v4l2.971.33a9.371,9.371,0,0,0,1,2.407l-1.868,2.333,2.83,2.83,2.334-1.868a9.28,9.28,0,0,0,2.406,1l.331,2.972h4l.329-2.972a9.256,9.256,0,0,0,2.407-1l2.334,1.868,2.829-2.83-1.868-2.334a9.214,9.214,0,0,0,1-2.406Zm-12,1.333a3.334,3.334,0,0,1-3.333-3.333,3.333,3.333,0,0,1,3.333-3.334,3.334,3.334,0,0,1,3.333,3.334,3.335,3.335,0,0,1-3.333,3.333" transform="translate(5767.869 -2084.092)" fill="#b8b8b8"/>
    <path id="패스_98736" data-name="패스 98736" d="M0,0H32V32H0Z" transform="translate(234 136.5)" fill="none" opacity="0.2"/>
  </g>
</svg>
